<?xml version="1.0" standalone="no"?>
<!DOCTYPE svg PUBLIC "-//W3C//DTD SVG 20010904//EN"
 "http://www.w3.org/TR/2001/REC-SVG-20010904/DTD/svg10.dtd">
<svg version="1.0" xmlns="http://www.w3.org/2000/svg"
 width="680.000000pt" height="680.000000pt" viewBox="0 0 680.000000 680.000000"
 preserveAspectRatio="xMidYMid meet">
<metadata>
Created by potrace 1.11, written by Peter Selinger 2001-2013
</metadata>
<g transform="translate(0.000000,680.000000) scale(0.100000,-0.100000)"
fill="#000000" stroke="none">
<path d="M3059 6416 c-2 -2 -44 -7 -94 -11 -49 -4 -92 -8 -95 -10 -3 -1 -30
-6 -60 -9 -45 -5 -198 -35 -260 -51 -8 -2 -36 -8 -63 -14 -26 -6 -107 -31
-180 -55 -449 -148 -853 -394 -1182 -721 -174 -174 -255 -268 -363 -425 -28
-41 -55 -79 -59 -85 -43 -56 -171 -290 -231 -426 -55 -121 -143 -371 -158
-444 -1 -5 -7 -28 -13 -50 -31 -116 -62 -297 -79 -470 -9 -93 -8 -482 2 -570
7 -63 39 -268 50 -320 20 -95 51 -211 82 -306 21 -63 38 -116 39 -119 1 -3 7
-18 13 -33 7 -16 12 -31 12 -33 0 -3 8 -24 19 -47 10 -23 31 -71 47 -107 87
-197 246 -454 400 -646 117 -145 364 -391 469 -466 5 -5 30 -24 55 -44 166
-134 474 -309 714 -403 145 -58 347 -123 416 -135 14 -2 43 -9 65 -15 53 -14
270 -48 370 -58 102 -10 488 -10 580 1 135 15 258 35 355 56 25 6 56 12 68 15
13 2 85 23 160 45 339 102 683 276 957 483 44 33 82 63 85 66 3 3 28 24 55 46
83 65 305 293 393 402 193 240 343 494 462 783 26 63 97 270 105 303 2 12 13
56 24 97 22 81 24 95 45 215 34 191 41 285 41 520 0 184 -7 326 -19 390 -3 19
-14 80 -22 135 -3 14 -7 36 -9 50 -3 14 -7 34 -9 45 -55 289 -202 666 -364
933 -82 136 -92 150 -147 227 -54 76 -54 76 -146 185 -64 77 -273 289 -344
349 -155 131 -374 279 -560 377 -244 129 -559 243 -800 289 -44 8 -91 17 -104
20 -26 5 -161 24 -221 32 -45 5 -496 13 -501 9z"/>
</g>
</svg>
